<svg style="position: absolute; width: 0; height: 0; overflow: hidden;" version="1.1" xmlns="http://www.w3.org/2000/svg">
<defs>
<symbol id="icon-icon-music-note" viewBox="0 0 32 32">
<title>icon-music-note</title>
<path fill="#fff" d="M7.2 23.625c-1.763 0-3.2 1.431-3.2 3.188s1.438 3.188 3.2 3.188h2.325c0.956 0 1.806-0.425 2.394-1.087 0.006-0.006 0.019-0.006 0.025-0.012 0.037-0.038 0.063-0.094 0.094-0.131 0.081-0.1 0.156-0.2 0.219-0.313 0.594-0.887 0.875-2.056 0.875-2.95v-12.537c0.050-0.887 0.7-1.606 1.569-1.806 0.106-0.025 0.338-0.075 0.338-0.075l9.369-1.775c0.044-0.006 0.081-0.012 0.125-0.019 0.050-0.006 0.094-0.006 0.15-0.006 0.756 0 1.319 0.594 1.319 1.325v8.213c0 1.594 0.181 1.994-2.531 1.994h-1.256c-1.769 0-3.2 1.431-3.2 3.188s1.431 3.188 3.2 3.188h2.325c1.137 0 2.131-0.587 2.7-1.475 0-0.006 0.006 0 0.012 0 0.563-0.762 0.744-1.913 0.744-3.456v-18.925c0-0.731-0.619-1.325-1.375-1.325-0.044 0-0.087 0.006-0.125 0.006l-0.194 0.031-13.594 2.575c-0.863 0.231-1.644 1.056-1.706 1.963v15.656c0 0.869 0.125 1.387-2.981 1.387h-0.819z"></path>
</symbol>
<symbol id="icon-speech-bubble" viewBox="0 0 32 32">
<title>speech-bubble</title>
<path fill="#fff" style="fill: var(--color1, #fff)" d="M26.782 29.959l-8.375-6.872h-11.52c-3.797 0-6.887-3.157-6.887-7.037v-6.971c0-3.88 3.090-7.037 6.887-7.037h18.227c3.797 0 6.887 3.157 6.887 7.037v6.971c0 3.265-2.188 6.054-5.218 6.825v7.084zM6.887 4.042c-2.694 0-4.887 2.26-4.887 5.037v6.971c0 2.777 2.192 5.037 4.887 5.037h12.235l5.66 4.644v-4.574l0.883-0.105c2.472-0.291 4.335-2.441 4.335-5.002v-6.971c0-2.777-2.192-5.037-4.887-5.037h-18.227z"></path>
</symbol>
<symbol id="icon-wrench-hand-drawn-double-tool-outline" viewBox="0 0 32 32">
<title>wrench-hand-drawn-double-tool-outline</title>
<path fill="#fff" d="M26.549 19.821c-0.711 0-1.465 0.134-2.206 0.39-0.927-1.051-1.901-2.072-2.846-3.061-1.025-1.074-2.085-2.185-3.070-3.32-0.445-0.512-0.897-1.017-1.349-1.522-1.047-1.169-2.129-2.378-3.080-3.65-0.032-0.043-0.109-0.137-0.209-0.258-0.135-0.164-0.494-0.597-0.672-0.851 0.638-2.252 0.156-4.31-1.341-5.682-1.332-1.221-3.136-1.866-5.216-1.866-0.369 0-0.75 0.021-1.132 0.061-0.5 0.052-0.869 0.407-0.94 0.903-0.066 0.461 0.144 0.937 0.507 1.205 0.137 0.183 0.327 0.322 0.555 0.4 1.023 0.348 2.094 0.823 2.286 1.707 0.136 0.626-0.588 1.253-0.813 1.431-0.571 0.45-1.419 0.635-2.12 0.459-1.106-0.278-1.727-1.452-2.017-2.199-0.020-0.26-0.125-0.503-0.306-0.7-0.229-0.249-0.552-0.392-0.884-0.392-0.497 0-0.907 0.318-1.046 0.809l-0.014 0.052c-0.009 0.028-0.016 0.057-0.023 0.087-0.704 2.625-0.284 5.012 1.183 6.724 0.914 1.067 2.177 1.631 3.652 1.631 0.706 0 1.454-0.132 2.191-0.384 1.007 1.151 2.064 2.27 3.091 3.357 0.896 0.949 1.822 1.93 2.701 2.917 0.352 0.396 0.708 0.789 1.062 1.181 1.189 1.317 2.419 2.678 3.5 4.116 0.032 0.043 0.109 0.136 0.208 0.256 0.136 0.164 0.497 0.598 0.676 0.851-0.631 2.253-0.143 4.311 1.358 5.678 1.329 1.212 3.125 1.851 5.192 1.851 0.378 0 0.769-0.022 1.16-0.064 0.5-0.054 0.867-0.41 0.937-0.906 0.065-0.461-0.147-0.936-0.511-1.203-0.137-0.184-0.329-0.322-0.557-0.398-1.024-0.345-2.096-0.817-2.291-1.701-0.139-0.626 0.584-1.255 0.808-1.433 0.57-0.451 1.417-0.639 2.119-0.465 1.107 0.274 1.731 1.447 2.024 2.194 0.021 0.259 0.127 0.502 0.308 0.698 0.229 0.248 0.551 0.391 0.883 0.391 0.498 0 0.91-0.319 1.046-0.81l0.014-0.054c0.009-0.027 0.016-0.056 0.023-0.086 0.696-2.628 0.269-5.014-1.203-6.721-0.914-1.059-2.173-1.619-3.64-1.619zM30.206 27.012c-0.651-1.363-1.62-2.255-2.774-2.542-1.114-0.276-2.426 0.012-3.327 0.727-1.045 0.828-1.521 1.861-1.307 2.834 0.332 1.504 1.801 2.212 2.756 2.567-1.791 0.036-3.266-0.475-4.373-1.485-1.617-1.473-1.157-3.629-0.885-4.488 0.149-0.47-0.125-0.831-1.015-1.901-0.079-0.095-0.141-0.168-0.166-0.202-1.119-1.487-2.371-2.873-3.581-4.212-0.352-0.39-0.705-0.781-1.055-1.174-0.892-1.002-1.826-1.991-2.729-2.948-1.125-1.191-2.288-2.423-3.368-3.68l-0.332-0.386-0.469 0.196c-0.717 0.299-1.454 0.457-2.13 0.457-1.068 0-1.938-0.384-2.588-1.142-1.274-1.486-1.288-3.341-1.066-4.658 0.647 1.364 1.613 2.26 2.767 2.55 1.113 0.28 2.426-0.005 3.329-0.717 1.047-0.825 1.526-1.857 1.314-2.83-0.328-1.506-1.795-2.218-2.748-2.575 1.792-0.026 3.264 0.484 4.369 1.497 1.613 1.478 1.147 3.633 0.872 4.491-0.15 0.469 0.123 0.83 1.008 1.902 0.080 0.096 0.141 0.17 0.167 0.205 0.989 1.322 2.092 2.554 3.159 3.746 0.447 0.499 0.894 0.999 1.334 1.506 1.007 1.16 2.078 2.282 3.114 3.368 1.044 1.094 2.123 2.225 3.123 3.381l0.333 0.385 0.469-0.197c0.721-0.303 1.461-0.463 2.141-0.463 1.062 0 1.929 0.381 2.578 1.133 1.278 1.483 1.297 3.338 1.078 4.655z"></path>
</symbol>
</defs>
</svg>
